<?xml version="1.0" encoding="iso-8859-1"?>
<!-- Generator: Adobe Illustrator 19.0.0, SVG Export Plug-In . SVG Version: 6.00 Build 0)  -->
<svg version="1.1" id="Capa_1" xmlns="http://www.w3.org/2000/svg" xmlns:xlink="http://www.w3.org/1999/xlink" x="0px" y="0px"
	 viewBox="0 0 511.99 511.99" style="enable-background:new 0 0 511.99 511.99;" xml:space="preserve">
<g>
	<g>
		<circle style="fill: #fff;" cx="76.448" cy="42.119" r="42.119"/>
	</g>
</g>
<g>
	<g>
		<path style="fill: #fff;" d="M220.865,38.065c-0.19-0.194-0.364-0.398-0.563-0.586c-8.237-7.745-21.193-7.347-28.937,0.889l-48.059,51.104
			L77.195,99.51l-36.004,0.011c-17.026,0.005-30.824,13.812-30.818,30.837l0.045,145.736c-0.002,0.137-0.011,0.274-0.011,0.412
			l-0.099,211.456c-0.006,13.264,10.741,24.022,24.006,24.028c0.004,0,0.007,0,0.012,0c13.258,0,24.01-10.745,24.017-24.006
			l0.094-199.472l17.453-0.005l29.16,79.504l-17.058,116.48c-1.921,13.124,7.159,25.32,20.284,27.243
			c13.123,1.921,25.321-7.159,27.243-20.284l17.938-122.509c0.579-3.957,0.162-7.996-1.215-11.749l-25.199-68.699h0.01
			l-0.014-45.376c-10.526-2.391-36.883-8.376-47.401-10.764c-6.374-1.448-11.399-5.861-13.935-11.374l-27.646-61.097l40.885,50.347
			c2.889,3.557,6.889,6.043,11.358,7.058l75.309,17.103c11.023,2.504,21.992-4.403,24.496-15.43
			c2.504-11.026-4.404-21.993-15.43-24.497l-68.41-15.536l-36.426-44.854l31.382,22.957c36.044-33.817,20.385-19.125,46.802-43.91
			c2.335-2.569,5.443-4.42,8.958-5.186l33.91-9.296l10.229-10.879c-4.537-3.669-7.446-9.273-7.446-15.563
			C193.675,55.576,205.314,41.634,220.865,38.065z"/>
	</g>
</g>
<g>
	<g>
		<path style="fill: #fff;" d="M340.557,165.696l-43.845-41.14v-0.001h-0.001l-36.576-10.007c-0.013,0.113-0.033,0.223-0.047,0.336
			c-13.034-8.222-17.572-11.085-23.41-14.766c0.013-0.189,0.029-0.377,0.029-0.57v-5.772c8.756-3.259,15.01-11.703,15.01-21.58
			c0-12.691-10.325-23.016-23.016-23.016c-12.691,0-23.016,10.325-23.016,23.016c0,4.421,3.584,8.005,8.005,8.005
			c4.421,0,8.006-3.584,8.006-8.005c0-3.862,3.142-7.005,7.005-7.005s7.005,3.143,7.005,7.005c0,3.863-3.142,7.005-7.005,7.005
			c-4.421,0-8.005,3.584-8.005,8.006v12.341c0,0.192,0.015,0.38,0.029,0.569c-11.514,7.263-5.785,3.649-23.477,14.809
			c-0.016-0.127-0.038-0.251-0.053-0.378l-36.502,10.007h-0.074v0.074L118.44,164.2l60.015,13.629
			c20.21,4.589,32.874,24.694,28.284,44.905c-4.305,18.958-23.011,33.253-46.12,28.008v54.988c0,4.209,3.412,7.621,7.621,7.621
			h120.852c4.209-0.001,7.621-3.413,7.621-7.622V189.367l14.328,14.328c3.363,3.363,8.929,2.849,11.635-1.022l18.914-27.053
			C343.759,172.515,343.32,168.288,340.557,165.696z M228.665,142.567c-10.325,0-19.488-4.943-25.271-12.588
			c23.533-14.845,11.429-7.209,25.309-15.964c8.312,5.243,4.411,2.782,25.258,15.932
			C248.178,137.609,239.004,142.567,228.665,142.567z"/>
	</g>
</g>
<g>
	<g>
		<path style="fill: #fff;" d="M488.123,245.143h-174.4v18.699h30.822c1.927,0,3.49,1.563,3.49,3.49v17.686c0,1.927-1.563,3.49-3.49,3.49h-30.822v17.221
			c0,0.067-0.005,0.133-0.005,0.199h187.964v-47.227C501.683,251.213,495.612,245.143,488.123,245.143z M431.981,283.263
			c-5.573,0-10.091-4.518-10.091-10.091c0-5.573,4.518-10.091,10.091-10.091c5.573,0,10.091,4.518,10.091,10.091
			C442.072,278.746,437.554,283.263,431.981,283.263z M470.102,285.505c-6.812,0-12.334-5.522-12.334-12.333
			c0-6.812,5.522-12.334,12.334-12.334s12.334,5.522,12.334,12.334C482.435,279.984,476.913,285.505,470.102,285.505z"/>
	</g>
</g>
<g>
	<g>
		<path style="fill: #fff;" d="M303.145,325.942c-3.99,2.782-8.833,4.42-14.055,4.42h-32.953v168.068c0,7.489,6.071,13.559,13.559,13.559h218.425
			c7.489,0,13.56-6.071,13.56-13.559V325.942H303.145z M420.06,458.314c-22.727,22.727-59.573,22.727-82.3,0
			c-22.727-22.727-22.727-59.573,0-82.3c22.727-22.727,59.573-22.727,82.3,0C442.787,398.741,442.787,435.587,420.06,458.314z"/>
	</g>
</g>
<g>
	<g>
		<path style="fill: #fff;" d="M349.506,390.537c-14.123,15.571-13.673,39.652,1.353,54.679c15.026,15.026,39.107,15.476,54.679,1.353L349.506,390.537z"
			/>
	</g>
</g>
<g>
</g>
<g>
</g>
<g>
</g>
<g>
</g>
<g>
</g>
<g>
</g>
<g>
</g>
<g>
</g>
<g>
</g>
<g>
</g>
<g>
</g>
<g>
</g>
<g>
</g>
<g>
</g>
<g>
</g>
</svg>
